<?xml version="1.0" encoding="UTF-8"?>
<svg width="80px" height="80px" viewBox="0 0 80 80" version="1.1" xmlns="http://www.w3.org/2000/svg" xmlns:xlink="http://www.w3.org/1999/xlink">
    <!-- Generator: Sketch 63.1 (92452) - https://sketch.com -->
    <title>kdai_icon</title>
    <desc>Created with Sketch.</desc>
    <defs>
        <linearGradient x1="0%" y1="0%" x2="101.999998%" y2="100.999999%" id="linearGradient-1">
            <stop stop-color="#EC79FF" offset="0%"></stop>
            <stop stop-color="#6B99FF" offset="100%"></stop>
        </linearGradient>
    </defs>
    <g id="Page-1" stroke="none" stroke-width="1" fill="none" fill-rule="evenodd">
        <g id="crypto" transform="translate(-60.000000, -301.000000)" fill-rule="nonzero">
            <g id="kdai_icon" transform="translate(60.000000, 301.000000)">
                <rect id="Rectangle" fill="url(#linearGradient-1)" x="0" y="0" width="80" height="80" rx="40"></rect>
                <path d="M55.2380952,40.069644 C55.2380952,40.8262291 55.1627665,41.5615899 55.0516257,42.2857143 L28.7619048,42.2857143 L28.7619048,37.9047619 L55.0590352,37.9047619 C55.1652364,38.6126558 55.2380952,39.3317863 55.2380952,40.069644 L55.2380952,40.069644 Z M41.063624,54.0952381 L41.063624,54.0952381 L28.7619048,54.0952381 L28.7619048,46.8571429 L53.3333333,46.8571429 C50.9128789,51.1751482 46.3292819,54.0952381 41.063624,54.0952381 L41.063624,54.0952381 Z M28.5714286,25.9047619 L40.9530006,25.9047619 C46.2751434,25.9047619 50.9058413,28.8261543 53.3333333,33.1428571 L28.5714286,33.1428571 L28.5714286,25.9047619 Z M62.2857143,33.1188749 L58.5919017,33.1188749 C55.8375916,26.1120107 49.0178655,21.1428571 41.0240701,21.1428571 L23.9377179,21.1428571 L23.9377179,21.5533577 L23.9377179,25.8864204 L23.9377179,33.1188749 L17.7142857,33.1188749 L17.7142857,37.8624381 L23.9377179,37.8624381 L23.9377179,42.1881042 L17.7142857,42.1881042 L17.7142857,46.9329 L23.9377179,46.9329 L23.9377179,54.1135796 L23.9377179,58.4478749 L23.9377179,58.8571429 L41.0240701,58.8571429 C48.999347,58.8571429 55.805493,53.912644 58.5746179,46.9329 L62.2857143,46.9329 L62.2857143,42.1881042 L59.7709093,42.1881042 C59.8548596,41.4694198 59.9091806,40.7421063 59.9091806,40 C59.9091806,39.2763848 59.8585634,38.5650968 59.7783168,37.8624381 L62.2857143,37.8624381 L62.2857143,33.1188749 Z" id="Fill-1" fill="#FFFFFF"></path>
            </g>
        </g>
    </g>
</svg>