<svg xmlns="http://www.w3.org/2000/svg" xmlns:xlink="http://www.w3.org/1999/xlink" width="59.434" height="60" viewBox="0 0 59.434 60">
  <defs>
    <linearGradient id="linear-gradient" x2="1.02" y2="1.01" gradientUnits="objectBoundingBox">
      <stop offset="0" stop-color="#ec79ff"/>
      <stop offset="1" stop-color="#6b99ff"/>
    </linearGradient>
  </defs>
  <g id="그룹_1012" data-name="그룹 1012" transform="translate(-322 -316)">
    <g id="Page-1" transform="translate(322 316)">
      <g id="crypto">
        <g id="kdai_icon">
          <rect id="Rectangle" width="59.434" height="60" rx="29.717" fill="url(#linear-gradient)"/>
          <path id="Fill-1" d="M43.94,34.371a10.163,10.163,0,0,1-.13,1.549H25.436V32.858h18.38a10.16,10.16,0,0,1,.125,1.513Zm-9.907,9.8h-8.6V39.115H42.609a9.829,9.829,0,0,1-8.576,5.059ZM25.3,24.471h8.654a9.914,9.914,0,0,1,8.653,5.059H25.3Zm23.564,5.042H46.284a13.192,13.192,0,0,0-12.278-8.37H22.064v8.37h-4.35v3.315h4.35v3.023h-4.35v3.316h4.35V47.5H34.006a13.2,13.2,0,0,0,12.266-8.334h2.594V35.852H47.108a12.194,12.194,0,0,0,.005-3.023h1.752Z" transform="translate(-3.491 -4.523)" fill="#fff"/>
        </g>
      </g>
    </g>
  </g>
</svg>
