<svg xmlns="http://www.w3.org/2000/svg" width="60" height="60" viewBox="0 0 60 60">
  <g id="그룹_874" data-name="그룹 874" transform="translate(-315 161)">
    <path id="패스_491" data-name="패스 491" d="M93,89A30,30,0,1,0,63,59,30,30,0,0,0,93,89Z" transform="translate(252 -190)" fill="#2775ca"/>
    <path id="패스_492" data-name="패스 492" d="M91.164,84.055a.9.9,0,0,1-1.225.894,22.5,22.5,0,0,1,0-42.848.889.889,0,0,1,1.225.894V44.75a1.379,1.379,0,0,1-.828,1.192,18.716,18.716,0,0,0,.033,35.166A1.4,1.4,0,0,1,91.2,82.3v1.754h-.033Zm7.291-6.932a.925.925,0,0,1-.927.927H95.674a.926.926,0,0,1-.928-.927v-2.98c-4.106-.563-6.092-2.848-6.622-5.96a.883.883,0,0,1,.861-1.026H91.1a.985.985,0,0,1,.927.761c.4,1.854,1.457,3.278,4.768,3.278,2.417,0,4.139-1.358,4.139-3.377s-1.026-2.781-4.57-3.377c-5.265-.662-7.748-2.252-7.748-6.391,0-3.179,2.384-5.629,6.126-6.159V48.978a.926.926,0,0,1,.928-.927h1.854a.925.925,0,0,1,.927.927v2.98a6.339,6.339,0,0,1,5.563,5.1.875.875,0,0,1-.861,1.06h-1.987a.954.954,0,0,1-.894-.7c-.53-1.821-1.821-2.583-4.073-2.583-2.483,0-3.774,1.192-3.774,2.881,0,1.788.728,2.682,4.536,3.212,5.166.7,7.815,2.186,7.815,6.557,0,3.344-2.483,6.027-6.325,6.656v2.98Zm4.712,7.871a.889.889,0,0,1-1.225-.894V82.345a1.288,1.288,0,0,1,.828-1.192,18.723,18.723,0,0,0-.033-35.2,1.4,1.4,0,0,1-.828-1.192V43.008a.886.886,0,0,1,1.225-.894,22.528,22.528,0,0,1,.033,42.881Z" transform="translate(248.49 -194.05)" fill="#fff"/>
  </g>
</svg>
