<svg xmlns="http://www.w3.org/2000/svg" xmlns:xlink="http://www.w3.org/1999/xlink" width="60" height="60.571" viewBox="0 0 60 60.571">
  <defs>
    <linearGradient id="linear-gradient" y1="0.5" x2="1" y2="0.5" gradientUnits="objectBoundingBox">
      <stop offset="0.257" stop-color="#fff"/>
      <stop offset="1" stop-color="#e6e6e6"/>
    </linearGradient>
  </defs>
  <g id="그룹_16" data-name="그룹 16" transform="translate(-60 245)">
    <g id="그룹_858" data-name="그룹 858" transform="translate(60 -245)">
      <g id="그룹_851" data-name="그룹 851" transform="translate(0 0)">
        <ellipse id="타원_13" data-name="타원 13" cx="30" cy="30.286" rx="30" ry="30.286" fill="#00ab55"/>
        <g id="그룹_673" data-name="그룹 673" transform="translate(6.128 12.875)">
          <path id="패스_334" data-name="패스 334" d="M193.241,292.249c-2.132-5.26-8.736-5.26-10.867,0l-7.958,19.636c-1.008,2.487-.256,5.552,1.679,6.847s4.321.329,5.328-2.157l2.976-7.342a3.586,3.586,0,0,1,6.819,0l3.069,7.573a3.586,3.586,0,0,0,6.819,0l3.07-7.574a3.586,3.586,0,0,1,6.819,0l2.976,7.342c1.008,2.486,3.393,3.452,5.328,2.157s2.686-4.361,1.679-6.847l-7.959-19.636c-2.132-5.26-8.736-5.26-10.867,0l-3.42,8.438a1.089,1.089,0,0,1-2.07,0Z" transform="translate(-173.968 -288.305)" fill="#d3d3d3"/>
          <path id="패스_335" data-name="패스 335" d="M242.283,292.437l-.008-.02c-.047-.119-.1-.235-.149-.349l-.039-.086q-.08-.171-.166-.333l-.041-.075c-.056-.1-.113-.2-.173-.3l-.021-.036c-.065-.1-.132-.2-.2-.3l-.049-.069q-.1-.142-.21-.276l-.044-.053q-.1-.124-.209-.241l-.032-.036c-.077-.083-.157-.163-.237-.241l-.055-.053c-.081-.076-.163-.15-.247-.22l-.012-.01-.037-.029q-.089-.073-.181-.142l-.041-.032-.031-.022c-.074-.054-.149-.107-.225-.156l-.01-.007c-.036-.023-.072-.044-.108-.067-.054-.034-.109-.068-.164-.1-.04-.023-.08-.043-.12-.065s-.1-.057-.157-.083-.085-.04-.127-.06-.1-.048-.156-.07-.088-.036-.132-.053-.1-.041-.156-.059l-.136-.046c-.052-.017-.1-.034-.156-.049l-.138-.038c-.052-.014-.1-.027-.157-.039l-.14-.03-.159-.029-.141-.022-.16-.02-.141-.014c-.054,0-.107-.007-.161-.01l-.141-.006c-.054,0-.108,0-.163,0l-.139,0c-.055,0-.11.006-.165.01l-.136.01c-.057.005-.113.013-.17.02s-.087.01-.131.017c-.06.009-.119.021-.178.033-.04.008-.08.014-.12.023-.071.016-.142.034-.213.052l-.083.021q-.146.041-.291.09l-.1.036c-.064.023-.128.046-.191.072-.04.016-.078.035-.118.052-.056.024-.112.048-.167.075s-.082.041-.122.062-.105.053-.157.082-.082.048-.123.072-.1.059-.15.09-.082.053-.122.081-.1.065-.144.1-.08.059-.12.09-.093.071-.139.108-.079.065-.117.1-.09.078-.134.118l-.114.106q-.065.062-.129.128c-.037.037-.073.075-.109.114s-.083.091-.124.138-.07.08-.1.121-.08.1-.119.149-.066.084-.1.128-.077.107-.115.161-.062.088-.092.133-.074.116-.111.175-.057.09-.084.137c-.037.063-.072.129-.108.194-.025.045-.05.089-.074.136-.038.074-.074.15-.11.226-.019.041-.04.08-.059.122q-.078.171-.149.351l-.006.014-3.325,8.438h0a1.453,1.453,0,0,1-.076.161l-.011.021a1.28,1.28,0,0,1-.087.133l-.017.023a1.156,1.156,0,0,1-.1.111l-.019.018a1.105,1.105,0,0,1-.112.093l-.012.008a1.018,1.018,0,0,1-.119.071l-.013.007a1,1,0,0,1-.127.052l-.023.008a.967.967,0,0,1-.127.03l-.026,0a.964.964,0,0,1-.13.01h-.021a.992.992,0,0,1-.138-.011l-.011,0a.986.986,0,0,1-.128-.03c-.018-.005-.035-.013-.052-.02s-.056-.021-.083-.034-.039-.02-.058-.031-.048-.027-.071-.043-.039-.027-.057-.042-.043-.034-.064-.053-.037-.034-.055-.052-.038-.042-.057-.064-.034-.04-.05-.061-.034-.051-.05-.077-.03-.045-.043-.069-.033-.068-.049-.1c-.009-.02-.019-.038-.027-.059l-3.325-8.438c-.047-.119-.1-.235-.148-.349l-.018-.038q-.067-.146-.138-.287l-.042-.079c-.041-.078-.083-.156-.126-.232-.018-.031-.036-.06-.053-.09-.041-.069-.083-.138-.126-.2l-.061-.092q-.064-.1-.13-.188l-.066-.09q-.067-.09-.135-.176l-.069-.085q-.071-.085-.144-.167l-.069-.077c-.051-.056-.1-.11-.156-.163l-.064-.065c-.058-.057-.117-.111-.177-.165l-.052-.047q-.111-.1-.225-.188l-.01-.009a5.55,5.55,0,0,0-.5-.354l-.042-.025c-.07-.043-.141-.084-.213-.124l-.071-.037c-.063-.033-.126-.066-.19-.1l-.084-.039c-.06-.028-.121-.055-.182-.08l-.091-.036q-.089-.035-.179-.067l-.095-.032q-.09-.03-.18-.056l-.1-.027c-.061-.017-.123-.032-.184-.046l-.093-.021c-.064-.014-.128-.025-.193-.036l-.086-.015c-.07-.011-.141-.02-.212-.028l-.068-.008q-.135-.014-.271-.02H218q-.145-.007-.29,0h-.016q-.132,0-.265.011l-.076.007c-.068.006-.136.012-.2.02l-.1.014c-.061.009-.122.018-.183.028l-.1.02c-.058.012-.115.023-.173.037l-.108.027q-.084.021-.167.046l-.11.034c-.055.017-.109.036-.163.055l-.109.04c-.054.021-.108.042-.162.065l-.106.045-.043.018q-.1.044-.194.093l-.017.009c-.075.038-.15.079-.224.121l-.059.034c-.079.046-.157.094-.235.144a6.4,6.4,0,0,0-2.409,3.078l-4.159,10.555h0c2.241-4.836,8.37-4.7,10.386.419l2.341,5.942.006.016h0c.007.018.016.034.023.052l2.984,7.573.008.018q.056.14.118.272c.016.034.034.065.05.1.029.059.059.118.09.174.02.037.042.071.063.107s.059.1.09.148.048.07.072.1.062.089.094.132.052.067.079.1.065.08.1.119.056.063.085.093.068.072.1.107.06.058.09.086.071.065.107.1.063.053.094.078.074.058.111.086l.1.07c.038.026.077.051.116.076l.1.062c.04.023.08.045.12.066l.1.053c.041.02.083.038.125.056s.069.03.1.044.086.032.13.047.069.025.1.035.091.026.137.038.066.019.1.026c.05.012.1.02.15.029l.089.017c.071.011.142.019.213.025.092.008.185.013.277.013h.009l.073,0c.062,0,.124,0,.186-.009.029,0,.058-.007.087-.01.057-.006.114-.013.17-.022l.093-.018c.054-.01.109-.021.163-.035l.094-.026c.053-.015.106-.03.158-.048l.094-.034c.052-.019.1-.039.154-.061l.091-.041c.051-.023.1-.048.151-.074l.088-.049q.075-.042.148-.089l.084-.055c.049-.033.1-.067.145-.1l.079-.061c.048-.038.1-.078.142-.119l.073-.065c.047-.044.093-.09.139-.138l.065-.068c.047-.051.092-.1.136-.158.019-.023.038-.044.056-.068.047-.059.092-.122.136-.185.014-.021.03-.04.044-.062.049-.072.095-.148.14-.225l.026-.043a4.689,4.689,0,0,0,.291-.607l2.984-7.573c.007-.018.015-.035.023-.052l.007-.017h0l2.341-5.941c2.016-5.116,8.145-5.255,10.386-.419h0Z" transform="translate(-203.657 -288.467)" fill="url(#linear-gradient)"/>
        </g>
      </g>
    </g>
  </g>
</svg>
