<svg xmlns="http://www.w3.org/2000/svg" width="60" height="60" viewBox="0 0 60 60">
  <g id="그룹_871" data-name="그룹 871" transform="translate(-328.581 356.5)">
    <path id="패스_475" data-name="패스 475" d="M112,89a30,30,0,0,0,30-30,30.333,30.333,0,0,0-1.289-8.728A30,30,0,1,0,112,89Z" transform="translate(246.581 -385.5)" fill="#24a980"/>
    <path id="패스_476" data-name="패스 476" d="M121.034,68.713l-3.66.1c-1.927,0-3.227-.048-3.709-.1-7.272-.289-12.762-1.589-12.762-3.082,0-1.541,5.442-2.793,12.762-3.13v4.96c.482.048,1.83.1,3.756.1,2.263,0,3.42-.1,3.612-.1V62.5c7.32.337,12.762,1.589,12.762,3.13C133.8,67.123,128.354,68.423,121.034,68.713Zm0-6.742V57.54h10.209V50.75H103.5v6.79h10.209v4.43c-8.283.385-14.495,2.022-14.495,4s6.212,3.612,14.495,4V84.22h7.369V69.964c8.282-.385,14.495-2.022,14.495-4-.048-1.974-6.26-3.612-14.543-4Z" transform="translate(241.219 -392.221)" fill="#fffdfa"/>
  </g>
</svg>
