<svg xmlns="http://www.w3.org/2000/svg" width="37" height="37" viewBox="0 0 37 37">
  <g id="그룹_982" data-name="그룹 982" transform="translate(-236 -86)">
    <g id="타원_22" data-name="타원 22" transform="translate(236 86)" fill="none" stroke="#f4f6f8" stroke-width="1">
      <circle cx="18.5" cy="18.5" r="18.5" stroke="none"/>
      <circle cx="18.5" cy="18.5" r="18" fill="none"/>
    </g>
    <g id="그룹_910" data-name="그룹 910" transform="translate(83.151 -104.465)">
      <path id="Fill-1" d="M170.147,215.663a.7.7,0,1,1-.7.7.7.7,0,0,1,.7-.7m11.062-4.355a.7.7,0,1,1,.7-.7.7.7,0,0,1-.7.7m0-2.881a2.182,2.182,0,0,0-2.182,2.177,2.143,2.143,0,0,0,.116.693l-7.206,3.829a2.18,2.18,0,0,0-3.747.279L161.717,212a2.833,2.833,0,0,1-1.141-2.507,1.329,1.329,0,0,1,.494-1.109.63.63,0,0,1,.622.027l.043.022c1.715.9,7.329,3.854,7.565,3.964a1.107,1.107,0,0,0,1.189-.058l11.605-6.025a.532.532,0,0,0,.368-.474.555.555,0,0,0-.356-.478c-.66-.316-1.674-.79-2.664-1.252-2.115-.989-4.512-2.109-5.565-2.66a1.8,1.8,0,0,0-1.771.007l-.253.125c-4.738,2.339-11.079,5.474-11.44,5.693a2.58,2.58,0,0,0-1.1,2.146,4.11,4.11,0,0,0,1.831,3.734l6.846,3.524a2.181,2.181,0,0,0,4.338-.28l7.54-4.079a2.179,2.179,0,1,0,1.341-3.893" fill="#f4f6f8"/>
    </g>
  </g>
</svg>
