<svg xmlns="http://www.w3.org/2000/svg" width="36" height="37" viewBox="0 0 36 37">
  <g id="그룹_983" data-name="그룹 983" transform="translate(-282 -86)">
    <g id="타원_36" data-name="타원 36" transform="translate(282 86)" fill="none" stroke="#f4f6f8" stroke-width="1">
      <ellipse cx="18" cy="18.5" rx="18" ry="18.5" stroke="none"/>
      <ellipse cx="18" cy="18.5" rx="17.5" ry="18" fill="none"/>
    </g>
    <g id="그룹_964" data-name="그룹 964" transform="translate(164.705 -106.931)">
      <path id="패스_514" data-name="패스 514" d="M144.035,209.321a5.338,5.338,0,0,0-1.413-3.7,4.982,4.982,0,0,0-.137-3.652s-1.153-.371-3.777,1.414a12.961,12.961,0,0,0-6.883,0c-2.625-1.786-3.78-1.414-3.78-1.414a4.973,4.973,0,0,0-.134,3.651,5.354,5.354,0,0,0-1.416,3.705c0,5.286,3.21,6.471,6.261,6.819a2.95,2.95,0,0,0-.873,1.846,2.922,2.922,0,0,1-4-1.147,2.887,2.887,0,0,0-2.1-1.423s-1.342-.017-.093.839a3.646,3.646,0,0,1,1.526,2.019s.807,2.684,4.63,1.851c.006,1.047.017,1.854.018,2.24h6.817c0-.541.017-1.947.017-3.678a3.3,3.3,0,0,0-.933-2.555C140.822,215.788,144.035,214.621,144.035,209.321Z" fill="#f4f6f8"/>
    </g>
  </g>
</svg>
