<svg xmlns="http://www.w3.org/2000/svg" width="36" height="37" viewBox="0 0 36 37">
  <g id="그룹_984" data-name="그룹 984" transform="translate(-328 -86)">
    <g id="타원_40" data-name="타원 40" transform="translate(328 86)" fill="none" stroke="#f4f6f8" stroke-width="1">
      <ellipse cx="18" cy="18.5" rx="18" ry="18.5" stroke="none"/>
      <ellipse cx="18" cy="18.5" rx="17.5" ry="18" fill="none"/>
    </g>
    <path id="패스_524" data-name="패스 524" d="M140.208,226.3a9.765,9.765,0,1,0,4.883,18.224l-1.221-2.113a7.326,7.326,0,1,1,3.661-6.345v1.063a1.263,1.263,0,0,1-1.22,1.378,1.222,1.222,0,0,1-1.22-1.22V232.4H143.4a4.878,4.878,0,1,0,.118,7.227,3.642,3.642,0,0,0,2.79,1.318,3.7,3.7,0,0,0,3.662-3.82v-1.063A9.777,9.777,0,0,0,140.208,226.3Zm0,12.207a2.441,2.441,0,1,1,2.441-2.441A2.444,2.444,0,0,1,140.208,238.5Z" transform="translate(205.793 -131.563)" fill="#f4f6f8"/>
  </g>
</svg>
