<svg xmlns="http://www.w3.org/2000/svg" width="36" height="37" viewBox="0 0 36 37">
  <g id="그룹_906" data-name="그룹 906" transform="translate(-190 -79)">
    <g id="타원_10" data-name="타원 10" transform="translate(190 79)" fill="none" stroke="#f4f6f8" stroke-width="1">
      <ellipse cx="18" cy="18.5" rx="18" ry="18.5" stroke="none"/>
      <ellipse cx="18" cy="18.5" rx="17.5" ry="18" fill="none"/>
    </g>
    <path id="패스_80" data-name="패스 80" d="M98.461-239.725h4.764v.366c-.354.309-.692.642-1.068.921a1.075,1.075,0,0,0-.442,1.033c.035,1.216-.033,2.435-.039,3.653q-.015,2.869.005,5.738a.686.686,0,0,0,.177.417c.337.367.708.7,1.044,1.07a2.243,2.243,0,0,1,.263.483H96.445a2.237,2.237,0,0,1,.263-.484c.337-.367.694-.716,1.054-1.062a.756.756,0,0,0,.24-.593q-.01-3.619,0-7.237v-.316a.678.678,0,0,0-.219.3q-1.8,4.517-3.6,9.036c-.059.149-.09.269-.3.278a.363.363,0,0,1-.387-.261c-.264-.578-.537-1.151-.8-1.728q-.571-1.236-1.138-2.474-1.147-2.5-2.293-5c-.047-.1-.108-.2-.162-.294a.48.48,0,0,0-.071.264c0,2.138-.007,4.275.009,6.413a1.055,1.055,0,0,0,.216.607c.555.693,1.143,1.359,1.709,2.043a1.151,1.151,0,0,1,.13.344,1.271,1.271,0,0,1-.3.078c-1.262.005-2.524,0-3.786,0-.335,0-.67.016-1,.024v-.305a.994.994,0,0,0,.214-.146c.342-.4.679-.8,1.014-1.2.122-.147.219-.317.354-.45a1.724,1.724,0,0,0,.477-1.388c-.043-2.463-.016-4.927-.025-7.391a.884.884,0,0,0-.156-.5c-.353-.465-.753-.9-1.1-1.363-.2-.271-.564-.457-.531-.874h4.948a.324.324,0,0,0,.014.086q1.013,2.214,2.028,4.428c.4.88.795,1.765,1.2,2.645.2.431.408.857.644,1.352.343-.825.657-1.565.959-2.311q1.083-2.674,2.153-5.354C98.3-239.153,98.371-239.442,98.461-239.725Z" transform="translate(113.775 330.458)" fill="#637381"/>
  </g>
</svg>
