<svg xmlns="http://www.w3.org/2000/svg" width="36" height="37" viewBox="0 0 36 37">
  <g id="그룹_980" data-name="그룹 980" transform="translate(-144 -86)">
    <g id="타원_9" data-name="타원 9" transform="translate(144 86)" fill="none" stroke="#f4f6f8" stroke-width="1">
      <ellipse cx="18" cy="18.5" rx="18" ry="18.5" stroke="none"/>
      <ellipse cx="18" cy="18.5" rx="17.5" ry="18" fill="none"/>
    </g>
    <path id="패스_79" data-name="패스 79" d="M255.42,198.024l10.678-4.4c1.054-.458,4.629-1.925,4.629-1.925s1.65-.642,1.512.917c-.046.642-.412,2.887-.779,5.316l-1.146,7.2s-.092,1.054-.871,1.237a3.769,3.769,0,0,1-2.292-.825c-.183-.137-3.437-2.2-4.629-3.208a.868.868,0,0,1,.046-1.467c1.65-1.512,3.621-3.391,4.812-4.583.55-.55,1.1-1.833-1.192-.275l-6.462,4.354a2.693,2.693,0,0,1-2.108.046c-1.375-.413-2.979-.962-2.979-.962s-1.1-.687.779-1.421" transform="translate(-101.934 -93.562)" fill="#f4f6f8"/>
  </g>
</svg>
