<svg xmlns="http://www.w3.org/2000/svg" width="37" height="37" viewBox="0 0 37 37">
  <g id="ê·¸ë£¹_979" data-name="ê·¸ë£¹ 979" transform="translate(-98 -86)">
    <g id="íƒ€ì›_8" data-name="íƒ€ì› 8" transform="translate(98 86)" fill="none" stroke="#f4f6f8" stroke-width="1">
      <circle cx="18.5" cy="18.5" r="18.5" stroke="none"/>
      <circle cx="18.5" cy="18.5" r="18" fill="none"/>
    </g>
    <g id="___Icons_color_ic_twitter" data-name="__ðŸ¥¬Icons/ color/ ic_twitter" transform="translate(106.277 94.314)">
      <g id="twitter">
        <path id="Path" d="M0,0H19.612V19.612H0" fill="#637381" opacity="0"/>
        <path id="Path-2" data-name="Path" d="M4.7,14.817A10.254,10.254,0,0,0,15.3,4.628,7.493,7.493,0,0,0,16.669,2a.408.408,0,0,0-.574-.472,1.741,1.741,0,0,1-2-.352,3.6,3.6,0,0,0-5.168-.157A3.825,3.825,0,0,0,7.861,4.628,8.076,8.076,0,0,1,.923,1.322a.4.4,0,0,0-.695.222,8.966,8.966,0,0,0,4.261,9.309,6.234,6.234,0,0,1-4.14,2.112.417.417,0,0,0-.13.778A10.189,10.189,0,0,0,4.7,14.817" transform="translate(2.042 2.904)" fill="#f4f6f8"/>
      </g>
    </g>
  </g>
</svg>
