<?xml version="1.0" encoding="utf-8"?>
<!-- Generator: Adobe Illustrator 26.0.1, SVG Export Plug-In . SVG Version: 6.00 Build 0)  -->
<svg version="1.1" id="Layer_1" xmlns="http://www.w3.org/2000/svg" xmlns:xlink="http://www.w3.org/1999/xlink" x="0px" y="0px"
	 viewBox="0 0 44.94 44.94" style="enable-background:new 0 0 44.94 44.94;" xml:space="preserve">
<style type="text/css">
	.st0{fill:none;}
	.st1{fill:#00A04A;}
	.st2{fill:none;stroke:#00A04A;stroke-miterlimit:10;}
</style>
<g>
	<path id="패스_543" class="st0" d="M22.81,1.48c11.6,0,21,9.4,21,21s-9.4,21-21,21s-21-9.4-21-21S11.21,1.48,22.81,1.48z"/>
	<g id="그룹_1019" transform="translate(2.443 7.75)">
		<g id="그룹_1020" transform="translate(0.25 3.25)">
			<path id="패스_541" class="st1" d="M12.77,20.68c0,1.05,1.28,1.05,1.28,0v-4.64h12.76v4.64c0,1.05,1.28,1.05,1.28,0v-4.64h9.72
				c0.82,0,0.82-1.64,0-1.64h-2.69v-0.01c-1.07-5.27-4.63-9.7-9.54-11.89C19.38,0.04,12.3,2.19,8.52,7.68
				c-1.44,2-2.45,4.29-2.95,6.71v0.01H2.42c-0.82,0-0.82,1.64,0,1.64h10.35V20.68z M31.59,9.42c1.01,1.52,1.76,3.2,2.2,4.97v0.01
				h-2.2V9.42z M28.08,5.72c0.81,0.6,1.56,1.29,2.23,2.05v6.63h-2.23L28.08,5.72z M24.57,3.82c0.78,0.28,1.52,0.64,2.23,1.06v9.52
				h-2.23L24.57,3.82z M21.06,3.12c0.68,0.04,1.36,0.13,2.03,0.28l0.2,0.05V14.4h-2.23V3.12z M17.56,3.41
				c0.73-0.16,1.48-0.27,2.23-0.3V14.4h-2.23V3.41z M14.05,4.73c0.71-0.39,1.46-0.71,2.23-0.97V14.4h-2.23L14.05,4.73z M9.26,14.4
				H6.87v-0.01c0.32-1.35,0.82-2.65,1.48-3.87c0.28-0.51,0.58-1,0.91-1.47L9.26,14.4z M10.54,14.4V7.47
				c0.67-0.73,1.42-1.38,2.23-1.95v8.88L10.54,14.4z"/>
			<path id="패스_542" class="st2" d="M12.77,20.68c0,1.05,1.28,1.05,1.28,0v-4.64h12.76v4.64c0,1.05,1.28,1.05,1.28,0v-4.64h9.72
				c0.82,0,0.82-1.64,0-1.64h-2.69v-0.01c-1.07-5.27-4.63-9.7-9.54-11.89C19.38,0.04,12.3,2.19,8.52,7.68
				c-1.44,2-2.45,4.29-2.95,6.71v0.01H2.42c-0.82,0-0.82,1.64,0,1.64h10.35V20.68z M31.59,9.42c1.01,1.52,1.76,3.2,2.2,4.97v0.01
				h-2.2V9.42z M28.08,5.72c0.81,0.6,1.56,1.29,2.23,2.05v6.63h-2.23L28.08,5.72z M24.57,3.82c0.78,0.28,1.52,0.64,2.23,1.06v9.52
				h-2.23L24.57,3.82z M21.06,3.12c0.68,0.04,1.36,0.13,2.03,0.28l0.2,0.05V14.4h-2.23V3.12z M17.56,3.41
				c0.73-0.16,1.48-0.27,2.23-0.3V14.4h-2.23V3.41z M14.05,4.73c0.71-0.39,1.46-0.71,2.23-0.97V14.4h-2.23L14.05,4.73z M9.26,14.4
				H6.87v-0.01c0.32-1.35,0.82-2.65,1.48-3.87c0.28-0.51,0.58-1,0.91-1.47L9.26,14.4z M10.54,14.4V7.47
				c0.67-0.73,1.42-1.38,2.23-1.95v8.88L10.54,14.4z"/>
		</g>
	</g>
</g>
</svg>
