<?xml version="1.0" encoding="utf-8"?>
<!-- Generator: Adobe Illustrator 26.0.1, SVG Export Plug-In . SVG Version: 6.00 Build 0)  -->
<svg version="1.1" id="Layer_1" xmlns="http://www.w3.org/2000/svg" xmlns:xlink="http://www.w3.org/1999/xlink" x="0px" y="0px"
	 viewBox="0 0 45.78 45.78" style="enable-background:new 0 0 45.78 45.78;" xml:space="preserve">
<style type="text/css">
	.st0{fill:none;}
	.st1{fill:none;stroke:#00AB55;stroke-width:2.5;stroke-linecap:round;}
	.st2{fill:none;stroke:#00AB55;stroke-width:2.5;stroke-linecap:round;stroke-linejoin:round;}
	.st3{fill:none;stroke:#00AB55;stroke-width:2.5;}
</style>
<g>
	<path id="패스_560" class="st0" d="M23.17,1.17c11.6,0,21,9.4,21,21s-9.4,21-21,21s-21-9.4-21-21S11.57,1.17,23.17,1.17z"/>
	<g id="그룹_1030" transform="translate(-374.967 -884.981)">
		<path id="패스_556" class="st1" d="M391.91,916.73h-3.4"/>
		<path id="패스_557" class="st1" d="M407.58,916.73h-3.4"/>
		<path id="패스_547" class="st2" d="M382.37,906.99c3.83-1.9,6.69-5.32,7.87-9.43l0,0c0,0,2.08,6.25,7.81,6.25"/>
		<path id="패스_553" class="st3" d="M390.21,916.73v-17.19"/>
		<path id="패스_555" class="st3" d="M405.88,916.73v-17.19"/>
		<path id="패스_561" class="st1" d="M382.37,911.31h31.54"/>
		<path id="패스_562" class="st2" d="M413.72,906.99c-3.83-1.9-6.69-5.32-7.87-9.43l0,0c0,0-2.08,6.25-7.81,6.25"/>
	</g>
</g>
</svg>
