<?xml version="1.0" encoding="utf-8"?>
<!-- Generator: Adobe Illustrator 26.0.1, SVG Export Plug-In . SVG Version: 6.00 Build 0)  -->
<svg version="1.1" id="Layer_1" xmlns="http://www.w3.org/2000/svg" xmlns:xlink="http://www.w3.org/1999/xlink" x="0px" y="0px"
	 viewBox="0 0 60 60" style="enable-background:new 0 0 60 60;" xml:space="preserve">
<style type="text/css">
	.st0{fill:none;}
	.st1{fill:none;stroke:#00AB55;stroke-width:2.5;stroke-linecap:round;}
	.st2{fill:none;stroke:#00AB55;stroke-width:2.5;stroke-linecap:round;stroke-linejoin:round;}
	.st3{fill:none;stroke:#00AB55;stroke-width:2.5;}
</style>
<g>
	<path id="패스_560" class="st0" d="M30,7.57c11.6,0,21,9.4,21,21s-9.4,21-21,21s-21-9.4-21-21S18.4,7.57,30,7.57z"/>
	<g id="그룹_1030" transform="translate(-372.611 -883.546)">
		<path id="패스_556" class="st1" d="M397.31,920.27h-2.89"/>
		<path id="패스_557" class="st1" d="M410.64,920.27h-2.89"/>
		<path id="패스_547" class="st2" d="M389.2,911.98c3.26-1.61,5.69-4.52,6.69-8.02l0,0c0,0,1.77,5.32,6.64,5.32"/>
		<path id="패스_553" class="st3" d="M395.87,920.27v-14.61"/>
		<path id="패스_555" class="st3" d="M409.19,920.27v-14.61"/>
		<path id="패스_561" class="st1" d="M389.2,915.65h26.82"/>
		<path id="패스_562" class="st2" d="M415.86,911.98c-3.26-1.61-5.69-4.52-6.69-8.02l0,0c0,0-1.77,5.32-6.64,5.32"/>
	</g>
</g>
</svg>
